<svg width="201" height="67" viewBox="0 0 201 67" fill="none" xmlns="http://www.w3.org/2000/svg">
<g clip-path="url(#clip0_1_114)">
<path fill-rule="evenodd" clip-rule="evenodd" d="M48.3291 62.0897L48.3171 62.0933C46.1793 62.702 43.8181 63 41.2421 63H-2.00842V45.2308H9.19828V46.3237C9.19828 48.0293 9.40545 49.1507 9.71613 49.8075C9.86458 50.1213 10.016 50.2847 10.1383 50.371C10.2513 50.4507 10.3941 50.5037 10.6099 50.5037H40.6186C41.9486 50.5037 42.7503 50.2537 43.1971 49.9258C43.5796 49.645 43.8231 49.2185 43.8231 48.4487V35.6903H0.0181372V23.4302H43.9008V23.2035L43.9076 23.1433C43.9556 22.7061 43.9788 22.3007 43.9788 21.9261C43.9788 21.5515 43.9556 21.1461 43.9076 20.7089L43.9008 20.6487V20.3433H3.67288C2.62143 20.3433 1.70023 20.2456 1.00438 19.9753C0.648402 19.837 0.285264 19.6286 0.00493956 19.302C-0.293718 18.9541 -0.44953 18.5272 -0.44953 18.0697V7.9258H19.8161V1H34.2963V7.8471H55.2791L55.3631 7.86048C55.9648 7.95643 56.5646 8.16055 57.0268 8.57812C57.5273 9.03025 57.7578 9.63407 57.7578 10.2781C57.7578 11.9088 57.6236 13.358 57.3411 14.6129C57.0623 15.8519 56.6433 17.0366 56.0846 18.165C55.5368 19.2712 54.8576 20.3942 54.0516 21.5342C53.6463 22.1186 53.2018 22.7506 52.7178 23.4302H55.8178C56.2836 23.4302 56.7741 23.5649 57.1728 23.9339C57.5546 24.2872 57.7366 24.749 57.8163 25.183C57.9276 25.7462 57.9916 26.2655 57.9916 26.727V47.6618C57.9916 51.352 57.2201 54.4685 55.5868 56.9277C53.9451 59.3997 51.4993 61.107 48.3411 62.0863L48.3291 62.0897ZM56.7531 25.389C56.6491 24.8118 56.3373 24.5233 55.8178 24.5233H50.5956C50.8678 24.1469 51.1303 23.7826 51.3828 23.4302C52.0461 22.5053 52.6408 21.6628 53.1676 20.903C53.9471 19.8011 54.5966 18.7255 55.1163 17.6762C55.6358 16.6268 56.0256 15.525 56.2856 14.3707C56.5453 13.2164 56.6751 11.8522 56.6751 10.2781C56.6751 9.54357 56.1816 9.0976 55.1943 8.9402H33.2138V2.09309H20.8986V9.0189H0.633027V18.0697C0.633027 18.8567 1.6463 19.2502 3.67288 19.2502H44.9836V20.5882C45.0356 21.0604 45.0613 21.5063 45.0613 21.9261C45.0613 22.3458 45.0356 22.7918 44.9836 23.264V24.5233H1.1007V34.5973H44.9056V48.4487C44.9056 50.5475 43.4766 51.597 40.6186 51.597H10.6099C8.94713 51.597 8.1157 49.8392 8.1157 46.3237H-0.92586V61.907H41.2421C43.7363 61.907 45.9968 61.6182 48.0233 61.0412C53.9471 59.2048 56.9091 54.745 56.9091 47.6618V26.727C56.9091 26.3597 56.8571 25.9137 56.7531 25.389Z" fill="#FF005C"/>
<path fill-rule="evenodd" clip-rule="evenodd" d="M128.992 24.8946H79.8321V31.6782C80.4561 31.3347 81.1036 30.9682 81.7746 30.578C82.5711 30.0922 83.3498 29.6807 84.1108 29.347C84.8971 28.9503 85.6788 28.6945 86.4211 28.6945H128.605V36.0392C128.656 36.5822 128.682 37.1255 128.682 37.669V37.6917L128.605 39.583V56.6598C128.605 58.145 128.176 59.5742 127.364 60.9325C126.575 62.2523 125.564 63.4217 124.339 64.4412C123.127 65.4512 121.78 66.2898 120.302 66.9583L120.293 66.9622L120.284 66.9662C118.833 67.591 117.401 67.9193 115.996 67.9195M115.994 67.9195L65.9916 68V12.4616H90.6101V6H105.225V12.4616H128.992V24.8946M104.149 13.5561V7.09445H91.6853V13.5561H67.0668V66.9037L115.994 66.825C117.233 66.825 118.523 66.536 119.865 65.9583C121.259 65.3278 122.523 64.5397 123.658 63.5942C124.794 62.6485 125.723 61.5717 126.445 60.3635C127.168 59.1553 127.529 57.9205 127.529 56.6598V39.5602L127.607 37.669C127.607 37.1435 127.581 36.6182 127.529 36.093V29.789H86.4211C85.9048 29.789 85.2856 29.9727 84.5631 30.3405C83.8403 30.6558 83.0921 31.0497 82.3178 31.5225C81.5953 31.9427 80.8986 32.3368 80.2276 32.7045C80.0878 32.7703 79.9561 32.829 79.8321 32.881C79.3603 33.0785 79.0018 33.1772 78.7568 33.1772V23.8001H127.916V13.5561H104.149ZM115.994 39.5602V51.065C115.994 52.851 115.788 54.2433 115.375 55.2415C114.962 56.187 113.775 56.6598 111.814 56.6598H79.0663C79.0826 56.295 79.0963 55.9303 79.1076 55.5653C79.1318 54.7745 79.1438 53.9835 79.1438 53.1925C79.1953 51.9843 79.2213 50.776 79.2213 49.5677C79.2213 47.9392 79.1953 46.3108 79.1438 44.6823V39.5602H115.994ZM80.2191 40.6545V44.6645C80.2706 46.299 80.2966 47.9333 80.2966 49.5677C80.2966 50.7837 80.2706 51.9998 80.2191 53.2158C80.2188 53.999 80.2068 54.7822 80.1833 55.5653H111.814C112.725 55.5653 113.363 55.4533 113.783 55.286C114.176 55.1295 114.323 54.9502 114.389 54.805C114.719 54.0005 114.919 52.7795 114.919 51.065V40.6545H80.2191Z" fill="#FF005C"/>
<path fill-rule="evenodd" clip-rule="evenodd" d="M138.074 46.1797H147.423L147.501 49.1818C147.501 50.1825 147.813 50.8935 148.436 51.3148C149.111 51.6835 150.15 51.8677 151.552 51.8677H182.483C183.418 51.8677 184.145 51.4728 184.665 50.6828C185.184 49.8403 185.444 48.9975 185.444 48.1548V34.6457L144.774 34.4878C142.229 34.4878 140.515 33.645 139.632 31.9595C138.801 30.2215 138.385 28.0095 138.385 25.3235V8.57533H161.681C161.837 6.9953 161.915 4.83592 161.915 2.09723H174.069V8.57533H195.105C196.247 8.57533 197.001 8.73333 197.364 9.04932C197.728 9.31265 197.91 10.0237 197.91 11.1824V49.1818C197.91 50.9198 197.598 52.5525 196.975 54.0798C196.351 55.6073 195.468 56.9503 194.326 58.109C193.235 59.2675 191.91 60.1893 190.352 60.874C188.846 61.506 187.21 61.822 185.444 61.822L138.074 61.901V46.1797ZM195.1 58.8758C193.903 60.144 192.459 61.144 190.782 61.8807L190.774 61.8843L190.766 61.8877C189.118 62.5793 187.34 62.9193 185.444 62.9193L136.992 63V45.0825H148.477L148.583 49.1673V49.1818C148.583 49.9023 148.782 50.2113 148.997 50.3742C149.444 50.5995 150.252 50.7705 151.552 50.7705H182.483C183.051 50.7705 183.438 50.5633 183.756 50.087C184.181 49.3925 184.362 48.7533 184.362 48.1548V35.7388L144.774 35.5848C144.773 35.5848 144.773 35.5848 144.772 35.5848C141.99 35.5845 139.812 34.6427 138.676 32.4743L138.667 32.4565L138.658 32.4382C137.734 30.5045 137.303 28.1145 137.303 25.3235V7.47808H160.686C160.783 6.0671 160.832 4.2762 160.832 2.09723V1H175.151V7.47808H195.105C195.718 7.47808 196.272 7.51982 196.746 7.61933C197.19 7.71257 197.658 7.87523 198.033 8.18655C198.489 8.53658 198.706 9.05748 198.821 9.50473C198.944 9.98635 198.992 10.5569 198.992 11.1824V49.1818C198.992 51.0563 198.655 52.8322 197.974 54.4995C197.299 56.1548 196.34 57.6163 195.1 58.8758ZM184.266 20.0721C184.085 20.0127 183.661 19.9427 182.873 19.9427H151.552C151.213 19.9427 150.979 19.9681 150.828 19.9993C150.819 20.0917 150.81 20.2032 150.801 20.3359C150.777 20.7249 150.765 21.2525 150.765 21.9265C150.765 22.8498 151.017 23.3531 151.351 23.6495C151.711 23.97 152.362 24.2263 153.5 24.2263H184.284V20.3465C184.284 20.2271 184.276 20.1372 184.266 20.0721ZM185.366 25.3235H153.5C150.955 25.3235 149.682 24.1912 149.682 21.9265C149.682 20.5571 149.734 19.7145 149.838 19.3985C149.994 19.0298 150.565 18.8454 151.552 18.8454H182.873C183.756 18.8454 184.379 18.9244 184.743 19.0825C185.158 19.1878 185.366 19.6091 185.366 20.3465V25.3235Z" fill="#00FA82"/>
</g>
<defs>
<clipPath id="clip0_1_114">
<rect width="201" height="67" fill="white"/>
</clipPath>
</defs>
</svg>
