<?xml version="1.0" encoding="UTF-8"?> <svg xmlns="http://www.w3.org/2000/svg" width="568" height="124" viewBox="0 0 568 124" fill="none"> <path fill-rule="evenodd" clip-rule="evenodd" d="M336.834 94.5805L336.806 94.5885C333.5 95.5397 329.866 96 325.926 96H260V67.1963H278.625V69.7611C278.625 72.3089 278.936 73.8498 279.317 74.6639C279.492 75.0368 279.631 75.1476 279.66 75.1681C279.66 75.1684 279.661 75.1688 279.661 75.1693C279.671 75.1771 279.71 75.2073 279.862 75.2073H324.988C326.907 75.2073 327.892 74.8377 328.345 74.5021C328.648 74.2769 328.921 73.9276 328.921 72.9894V54.5105H263.048V34.0764H329.09C329.134 33.5826 329.155 33.1227 329.155 32.6955C329.155 32.234 329.131 31.7344 329.079 31.195H269.43C267.817 31.195 266.3 31.047 265.099 30.5757C264.479 30.3327 263.792 29.9454 263.244 29.3012C262.654 28.6068 262.344 27.7476 262.344 26.8367V10.5218H292.819V0H316.367V10.4023H347.104L347.299 10.4337C348.292 10.5936 349.382 10.9478 350.254 11.7432C351.214 12.6196 351.648 13.7923 351.648 14.9997C351.648 17.5238 351.443 19.7959 351 21.7855C350.565 23.7378 349.911 25.6062 349.039 27.3859C348.192 29.1131 347.147 30.8583 345.913 32.6215C345.593 33.0868 345.258 33.5718 344.906 34.0764H347.845C348.714 34.0764 349.683 34.3328 350.481 35.0794C351.239 35.7879 351.578 36.6914 351.72 37.4723C351.894 38.3604 352 39.2103 352 39.9891V71.7937C352 77.5231 350.814 82.4486 348.233 86.3745C345.633 90.3298 341.772 93.034 336.861 94.5718L336.834 94.5805ZM349.251 37.9564C349.095 37.0796 348.626 36.6412 347.845 36.6412H339.992C340.636 35.7412 341.244 34.8862 341.815 34.0764C342.559 33.0215 343.241 32.043 343.86 31.1411C345.032 29.4672 346.008 27.8331 346.79 26.2389C347.571 24.6447 348.157 22.9708 348.548 21.2171C348.939 19.4635 349.134 17.391 349.134 14.9997C349.134 13.8837 348.392 13.2062 346.907 12.967H313.853V2.56477H295.334V13.0866H264.859V26.8367C264.859 28.0324 266.382 28.6302 269.43 28.6302H331.552V30.6629C331.63 31.3803 331.669 32.0578 331.669 32.6955C331.669 33.3332 331.63 34.0107 331.552 34.7281V36.6412H265.562V51.9457H331.435V72.9894C331.435 76.1778 329.286 77.772 324.988 77.772H279.862C277.361 77.772 276.111 75.1017 276.111 69.7611H262.514V93.4352H325.926C329.677 93.4352 333.076 92.9968 336.124 92.12C345.032 89.3301 349.486 82.5547 349.486 71.7937V39.9891C349.486 39.4311 349.408 38.7535 349.251 37.9564Z" fill="#FF005C"></path> <path fill-rule="evenodd" clip-rule="evenodd" d="M460 43.7858H383.393V51.986C383.933 51.6758 384.485 51.3547 385.047 51.0228C386.307 50.2424 387.547 49.5766 388.765 49.0328C390.047 48.3783 391.403 47.9131 392.748 47.9131H459.397V60.433C459.477 61.3071 459.517 62.1826 459.517 63.0578V63.1135L459.397 66.1063V93.1101C459.397 95.6538 458.672 98.0831 457.33 100.362C456.044 102.546 454.399 104.477 452.416 106.154C450.46 107.807 448.291 109.178 445.916 110.269L445.895 110.279L445.874 110.288C443.52 111.317 441.168 111.87 438.837 111.871M438.833 111.871L360 112V22.2253H398.364V12H422.963V22.2253H460V43.7858M420.375 24.9001V14.6749H400.952V24.9001H362.588V109.321L438.833 109.196C440.764 109.196 442.774 108.739 444.865 107.825C447.037 106.827 449.007 105.58 450.777 104.084C452.546 102.587 453.994 100.883 455.12 98.9709C456.246 97.0589 456.809 95.1053 456.809 93.1101V66.0506L456.93 63.0578C456.93 62.2265 456.889 61.3952 456.809 60.5639V50.588H392.748C391.944 50.588 390.979 50.8789 389.853 51.4609C388.727 51.9597 387.561 52.5832 386.354 53.3313C385.334 53.9339 384.347 54.5024 383.393 55.0368C383.294 55.0921 383.195 55.1472 383.097 55.2018C382.051 55.7006 381.287 55.95 380.805 55.95V41.1109H457.412V24.9001H420.375ZM381.408 66.0506V74.156C381.488 76.7331 381.529 79.3102 381.529 81.8873C381.529 83.7993 381.488 85.7114 381.408 87.6234C381.408 88.5607 381.397 89.498 381.376 90.4353C381.356 91.3269 381.326 92.2185 381.287 93.1101H432.319C435.375 93.1101 437.225 92.3619 437.868 90.8655C438.512 89.286 438.833 87.083 438.833 84.2565V66.0506H381.408ZM436.246 68.7254H383.996V74.113C384.076 76.7044 384.116 79.2958 384.116 81.8873C384.116 83.8187 384.076 85.7502 383.996 87.6815C383.995 88.5994 383.985 89.5174 383.965 90.4353H432.319C433.679 90.4353 434.548 90.2633 435.055 90.058C435.295 89.961 435.412 89.8734 435.46 89.8305C435.484 89.8088 435.495 89.7952 435.499 89.7875C435.941 88.6789 436.246 86.8963 436.246 84.2565V68.7254Z" fill="#FF005C"></path> <path fill-rule="evenodd" clip-rule="evenodd" d="M474.539 97.5396H488.746L488.864 102.1C488.864 103.62 489.338 104.7 490.285 105.34C491.311 105.9 492.889 106.18 495.02 106.18H542.02C543.441 106.18 544.546 105.58 545.335 104.38C546.124 103.1 546.519 101.82 546.519 100.54V80.0182L484.721 79.7782C480.853 79.7782 478.249 78.4981 476.907 75.9379C475.644 73.2977 475.013 69.9374 475.013 65.8571V40.4151H510.411C510.647 38.0149 510.766 34.7346 510.766 30.5743H529.234V40.4151H561.199C562.935 40.4151 564.079 40.6551 564.632 41.1351C565.184 41.5351 565.461 42.6152 565.461 44.3754V102.1C565.461 104.74 564.987 107.22 564.04 109.541C563.093 111.861 561.751 113.901 560.015 115.661C558.357 117.421 556.345 118.821 553.977 119.861C551.688 120.821 549.202 121.301 546.519 121.301L474.539 121.421V97.5396ZM561.831 117.46C559.926 119.477 557.633 121.061 554.987 122.223L554.967 122.232L554.948 122.24C552.328 123.339 549.51 123.875 546.523 123.876M546.519 123.876L472 124V94.9653H491.219L491.404 102.066V102.1C491.404 102.599 491.483 102.873 491.54 103.005C491.567 103.067 491.594 103.108 491.624 103.14C492.144 103.373 493.189 103.606 495.02 103.606H542.02C542.578 103.606 542.89 103.444 543.203 102.981C543.769 102.05 543.979 101.248 543.979 100.54V82.5826L484.721 82.3525C484.719 82.3525 484.718 82.3525 484.716 82.3525C480.292 82.3514 476.6 80.8388 474.665 77.1456L474.643 77.1037L474.622 77.061C473.14 73.9616 472.474 70.1836 472.474 65.8571V37.8408H508.058C508.169 35.869 508.226 33.451 508.226 30.5743V28H531.774V37.8408H561.199C562.165 37.8408 563.072 37.9061 563.874 38.0742C564.61 38.2286 565.476 38.5135 566.203 39.1114C567.118 39.8213 567.517 40.8392 567.712 41.5992C567.925 42.4351 568 43.3872 568 44.3754V102.1C568 105.06 567.467 107.877 566.386 110.525C565.317 113.146 563.796 115.463 561.831 117.46M543.861 58.6433C543.542 58.6107 543.129 58.5906 542.612 58.5906H495.02C494.927 58.5906 494.84 58.592 494.759 58.5945C494.733 59.1311 494.719 59.828 494.719 60.6967C494.719 61.9263 495.049 62.4048 495.304 62.6321C495.623 62.9157 496.362 63.2828 497.98 63.2828H543.861V58.6433ZM546.4 65.8571H497.98C494.113 65.8571 492.179 64.1369 492.179 60.6967C492.179 58.6165 492.258 57.3364 492.416 56.8564C492.653 56.2963 493.521 56.0163 495.02 56.0163H542.612C543.954 56.0163 544.901 56.1363 545.453 56.3763C546.085 56.5363 546.4 57.1764 546.4 58.2965V65.8571Z" fill="#00FA82"></path> <path d="M46.4739 104.473C41.8144 104.38 38.4559 103.118 36.3985 100.687C34.341 98.2557 33.0551 94.8549 32.5408 90.4847C32.5408 90.2385 32.4954 89.8076 32.4046 89.1921C32.2836 88.0226 32.0567 87.4379 31.7239 87.4379C31.2397 87.4379 30.3472 88.0534 29.0462 89.2845L27.5031 90.8079C27.2005 91.1772 26.9282 91.4542 26.6862 91.6388C19.3036 98.5327 13.449 102.426 9.12231 103.318H8.53231C6.32359 103.318 4.46282 102.703 2.95 101.472C1.2859 100.118 0.302564 98.2095 0 95.7475V95.332C0 92.4698 1.78513 88.8074 5.35539 84.3449C5.47641 84.191 5.58231 84.0371 5.67308 83.8832C5.97564 83.5139 6.24795 83.1446 6.49 82.7753C9.03154 79.236 11.6336 76.0815 14.2962 73.3116C16.989 70.5418 19.9844 67.7565 23.2823 64.9559C24.8254 63.5402 26.2172 62.6169 27.4577 62.186C28.6982 61.7244 29.9387 61.4936 31.1792 61.4936C31.8751 61.4936 32.5862 61.5397 33.3123 61.632C35.0369 62.2168 36.5044 62.94 37.7146 63.8018C38.9551 64.6327 40.12 65.556 41.2092 66.5716C42.0262 67.3103 42.949 68.095 43.9777 68.926C45.9141 70.5264 47.1092 71.742 47.5631 72.573C47.9867 73.3732 48.1985 74.081 48.1985 74.6965C48.1985 75.8353 47.2908 77.5741 45.4754 79.9131C43.3574 82.6522 41.9203 85.1143 41.1639 87.2994C40.5587 89.0536 40.2562 90.8079 40.2562 92.5621C40.2562 95.055 40.6646 96.4553 41.4815 96.7631C42.0867 96.9785 42.5859 97.0862 42.9792 97.0862C43.7659 97.0862 44.6585 96.8554 45.6569 96.3938C49.7113 94.4549 53.5236 91.7004 57.0939 88.1303C60.2708 84.9912 63.2964 81.7289 66.1708 78.3435C69.6805 74.2195 71.6321 72.1113 72.0254 72.019C72.2674 71.9882 72.449 71.9575 72.57 71.9267C72.6305 71.9267 72.6759 71.9267 72.7062 71.9267C73.3416 71.9267 73.9618 72.4499 74.5669 73.4963C75.0208 74.3888 75.2477 75.2043 75.2477 75.943C74.5216 79.5746 71.7077 84.1756 66.8062 89.7461C63.6292 93.3469 60.18 96.5784 56.4585 99.4406C52.7369 102.303 49.4087 103.98 46.4739 104.473ZM9.93923 93.9932C10.2721 93.9932 11.0436 93.5931 12.2538 92.7929C18.6682 88.792 24.5228 84.2064 29.8177 79.036C32.329 76.8201 33.5846 74.3734 33.5846 71.6959C33.5846 70.711 33.4182 70.1417 33.0854 69.9878C32.7526 69.8339 32.4651 69.757 32.2231 69.757C31.6482 69.757 30.9221 70.0032 30.0446 70.4956C27.019 72.4345 23.5546 75.6814 19.6515 80.2363C15.7182 84.7911 12.7228 88.6689 10.6654 91.8697C10.03 92.8545 9.71231 93.47 9.71231 93.7162C9.71231 93.9009 9.78795 93.9932 9.93923 93.9932Z" fill="white"></path> <path d="M81.8938 105.442C80.8651 105.442 79.7456 105.042 78.5354 104.242C77.0831 103.226 75.9484 101.564 75.1315 99.2559C74.8592 98.3634 74.7231 97.5325 74.7231 96.7631C74.7231 95.5936 75.0407 94.5472 75.6761 93.6239C76.4325 92.6083 77.5067 92.1005 78.8984 92.1005C79.5036 92.1005 80.1843 92.1928 80.9408 92.3775C83.6941 93.2392 85.7515 94.9781 87.1131 97.594C87.3854 98.148 87.5215 98.7789 87.5215 99.4868C87.5215 100.256 87.2644 101.241 86.75 102.441C86.2356 103.58 85.3128 104.457 83.9815 105.073C83.2856 105.319 82.5897 105.442 81.8938 105.442Z" fill="white"></path> <path d="M129.477 124H129.159C126.285 123.754 124.757 121.938 124.575 118.553C124.485 116.429 125.226 114.229 126.799 111.951C127.949 110.289 129.159 108.612 130.43 106.919C131.247 105.842 132.034 104.78 132.79 103.734C138.539 95.8552 143.924 87.7456 148.947 79.4053C148.977 79.3745 148.992 79.3591 148.992 79.3591C148.992 79.3284 148.992 79.2976 148.992 79.2668C150.626 76.6816 152.048 73.881 153.258 70.8649C153.954 69.0799 154.302 67.8488 154.302 67.1718C154.272 66.4639 154.257 66.0946 154.257 66.0638C154.227 64.8635 153.546 64.2172 152.215 64.1249H152.078C146.178 64.4635 138.221 68.6952 128.206 76.8201C120.612 83.0061 113.592 89.5922 107.148 96.5784L103.199 100.964C100.99 103.549 99.0087 104.888 97.2538 104.98C96.1343 105.011 95.0148 104.226 93.8953 102.626C92.8364 100.749 92.2766 99.2098 92.2161 98.0095C92.1253 96.2553 92.9574 94.024 94.7123 91.3157C96.3158 88.6689 97.9043 86.1914 99.4776 83.8832C101.293 81.298 103.003 78.6205 104.606 75.8506C106.21 73.0808 107.617 70.0186 108.827 66.664C109.493 64.6327 110.113 63.4786 110.688 63.2016C111.263 62.9554 111.701 62.8169 112.004 62.7862C112.911 62.7554 114.076 63.0939 115.498 63.8018C117.647 64.7558 118.887 65.6329 119.22 66.4331C119.553 67.1718 119.719 67.7103 119.719 68.0489C119.78 69.3415 118.827 71.1111 116.86 73.3578C115.166 75.1428 113.728 77.1586 112.548 79.4053C114.424 78.3281 116.209 77.0048 117.904 75.4352C120.718 72.9731 125.317 69.6954 131.701 65.6022C135.574 63.1093 139.371 60.9704 143.092 59.1853C145.876 57.8312 148.554 57.0772 151.125 56.9233C154 56.7694 156.814 57.8158 159.567 60.0625C161.231 61.6628 162.108 62.9708 162.199 63.9864C162.29 65.002 162.335 65.6329 162.335 65.8792C162.487 68.5567 161.473 72.1575 159.295 76.6816C157.086 81.2057 154.68 85.4682 152.078 89.4691C149.446 93.47 146.723 97.4401 143.909 101.379C141.368 104.919 138.841 108.581 136.33 112.367C136.239 112.459 136.164 112.567 136.103 112.69C135.468 113.613 135.014 114.398 134.742 115.044C134.469 115.66 134.257 116.568 134.106 117.768C133.713 121.769 132.17 123.846 129.477 124Z" fill="white"></path> <path d="M187.408 104.934C184.503 104.934 181.78 104.226 179.238 102.811C176.515 100.933 174.534 98.5635 173.293 95.7013C172.083 92.8083 171.478 90.0539 171.478 87.4379C171.478 85.1604 171.931 83.0215 172.839 81.021C173.475 79.6361 174.186 78.282 174.972 76.9586C176.394 74.4042 177.211 72.5422 177.423 71.3727C177.816 69.3415 178.558 68.0181 179.647 67.4026C180.222 67.0948 180.827 66.8486 181.462 66.664C182.945 66.2331 185.138 64.8482 188.043 62.5092C190.373 60.5395 193.171 58.816 196.439 57.3388C198.618 56.4463 200.524 56 202.158 56C205.607 56 208.3 57.2772 210.236 59.8316C211.023 61.0011 211.416 62.5553 211.416 64.4942C211.416 64.8943 211.386 65.2636 211.325 65.6022C210.781 67.7873 209.661 69.7416 207.967 71.465C205.97 73.4963 204.018 75.2043 202.112 76.5893C197.907 80.1285 194.094 81.8982 190.675 81.8982C189.284 81.8982 187.816 81.6212 186.273 81.0672C185.093 80.4825 184.019 80.1901 183.051 80.1901C182.204 80.1901 181.477 80.5286 180.872 81.2057C179.178 84.3449 178.331 87.1455 178.331 89.6076C178.331 91.208 178.785 92.6852 179.692 94.0394C181.235 96.0091 182.673 97.117 184.004 97.3632C185.335 97.6402 186.379 97.7787 187.135 97.7787C189.556 97.7787 192.778 96.9016 196.802 95.1473C196.923 95.0858 197.029 95.0396 197.12 95.0088C207.407 90.9156 217.694 84.3449 227.982 75.2967C228.042 75.2659 228.087 75.2197 228.118 75.1582C228.39 74.9427 228.617 74.7427 228.798 74.558C230.553 72.8961 231.9 72.0652 232.838 72.0652H233.019C234.229 72.3422 234.835 73.2654 234.835 74.835C234.835 75.7891 234.638 76.697 234.245 77.5587C232.944 80.0516 230.735 82.4829 227.618 84.8527C224.502 87.2224 221.325 89.4229 218.088 91.4542C214.124 94.1317 209.918 96.7015 205.471 99.1636C198.572 103.011 192.551 104.934 187.408 104.934ZM189.949 73.3578C192.128 73.3578 195.607 71.2188 200.388 66.9409C201.779 65.7407 202.475 64.9559 202.475 64.5866C202.475 64.3403 202.324 64.2326 202.021 64.2634C201.084 64.2634 199.283 64.9713 196.621 66.387C194.866 67.3103 193.429 68.1566 192.309 68.926C190.191 70.3725 188.92 71.7728 188.497 73.127C188.981 73.2808 189.465 73.3578 189.949 73.3578Z" fill="white"></path> <path d="M227.956 104.796C225.203 104.796 222.828 103.041 220.831 99.5329C220.044 97.7787 219.651 96.1014 219.651 94.501C219.651 93.7008 219.741 92.9468 219.923 92.239C220.437 89.9 221.436 87.6533 222.918 85.499C224.431 83.3139 226.035 81.2365 227.729 79.2668C229.424 77.2971 231.375 74.7427 233.584 71.6035C238.395 64.4942 241.844 60.8319 243.931 60.6164C244.083 60.5857 244.219 60.5703 244.34 60.5703C245.338 60.4472 245.974 60.3856 246.246 60.3856C248.243 60.3856 250.437 60.9704 252.827 62.1399C256.548 64.1403 258.636 66.0638 259.09 67.9104C259.544 69.757 259.771 71.1727 259.771 72.1575C259.771 74.3118 259.211 76.697 258.091 79.313C257.335 81.0364 256.518 82.4368 255.641 83.5139C254.219 85.3605 253.508 86.6069 253.508 87.2532C253.508 87.6533 253.886 87.8534 254.642 87.8534C255.066 87.8534 255.58 87.7918 256.185 87.6687C261.874 86.1299 266.79 84.0987 270.935 81.575C275.05 79.0514 278.741 75.2351 282.009 70.1263C282.826 68.8029 283.461 68.0797 283.915 67.9566C284.369 67.8642 284.657 67.8181 284.778 67.8181C285.504 67.8181 286.321 68.4028 287.228 69.5723C288.106 70.8033 288.545 72.0036 288.545 73.1731C288.545 73.7579 288.439 74.3118 288.227 74.835C287.591 76.4354 286.548 78.005 285.095 79.5438C281.888 82.9907 277.97 86.1145 273.341 88.9151C268.711 91.7158 264.158 93.7778 259.68 95.1012C257.895 95.6244 256.095 95.8859 254.279 95.8859C252.434 95.8859 250.542 95.5936 248.606 95.0088C247.517 94.6395 246.7 94.4549 246.155 94.4549C245.49 94.4549 244.764 94.8703 243.977 95.7013C243.069 96.84 240.724 98.7481 236.942 101.426C233.947 103.58 231.723 104.688 230.271 104.749C228.818 104.78 228.047 104.796 227.956 104.796ZM227.956 96.4861C229.741 96.2399 233.16 94.2394 238.213 90.4847C238.969 89.7153 239.348 89.0536 239.348 88.4997C239.348 87.9457 238.969 87.0532 238.213 85.8221C237.063 83.5447 236.307 82.3752 235.944 82.3136C235.611 82.2829 235.414 82.2675 235.354 82.2675C234.537 82.2675 233.448 83.3754 232.086 85.5913C231.784 85.9914 231.178 86.8531 230.271 88.1765C228.001 91.5311 226.867 93.9317 226.867 95.3781C226.867 95.9629 227.23 96.3322 227.956 96.4861ZM244.567 83.6524C244.809 83.6524 245.036 83.5909 245.248 83.4678C245.883 82.883 246.897 81.8366 248.288 80.3286C249.65 78.8513 250.664 77.5126 251.329 76.3123C251.995 75.1428 252.328 74.2811 252.328 73.7271C252.328 73.1116 252.101 72.6345 251.647 72.296C251.254 72.019 250.618 71.7882 249.741 71.6035C248.894 71.4189 248.213 71.3112 247.698 71.2804C247.214 71.2496 246.897 71.2342 246.745 71.2342C245.263 71.2342 244.113 71.7728 243.296 72.85C242.812 73.527 242.525 74.2657 242.434 75.0659C242.434 75.9276 242.555 76.897 242.797 77.9742C242.948 78.5897 243.039 79.1591 243.069 79.6823C243.13 82.329 243.629 83.6524 244.567 83.6524Z" fill="white"></path> <path d="M307.127 124H306.809C303.935 123.754 302.407 121.938 302.225 118.553C302.135 116.429 302.876 114.229 304.449 111.951C305.599 110.289 306.809 108.612 308.08 106.919C308.897 105.842 309.684 104.78 310.44 103.734C316.189 95.8552 321.574 87.7456 326.597 79.4053C326.627 79.3745 326.642 79.3591 326.642 79.3591C326.642 79.3284 326.642 79.2976 326.642 79.2668C328.276 76.6816 329.698 73.881 330.908 70.8649C331.604 69.0799 331.952 67.8488 331.952 67.1718C331.922 66.4639 331.907 66.0946 331.907 66.0638C331.877 64.8635 331.196 64.2172 329.865 64.1249H329.728C323.828 64.4635 315.871 68.6952 305.856 76.8201C298.262 83.0061 291.242 89.5922 284.798 96.5784L280.849 100.964C278.64 103.549 276.659 104.888 274.904 104.98C273.784 105.011 272.665 104.226 271.545 102.626C270.486 100.749 269.927 99.2098 269.866 98.0095C269.775 96.2553 270.607 94.024 272.362 91.3157C273.966 88.6689 275.554 86.1914 277.128 83.8832C278.943 81.298 280.652 78.6205 282.256 75.8506C283.86 73.0808 285.267 70.0186 286.477 66.664C287.142 64.6327 287.763 63.4786 288.338 63.2016C288.912 62.9554 289.351 62.8169 289.654 62.7862C290.561 62.7554 291.726 63.0939 293.148 63.8018C295.297 64.7558 296.537 65.6329 296.87 66.4331C297.203 67.1718 297.369 67.7103 297.369 68.0489C297.43 69.3415 296.477 71.1111 294.51 73.3578C292.816 75.1428 291.378 77.1586 290.198 79.4053C292.074 78.3281 293.859 77.0048 295.554 75.4352C298.368 72.9731 302.967 69.6954 309.351 65.6022C313.224 63.1093 317.021 60.9704 320.742 59.1853C323.526 57.8312 326.203 57.0772 328.775 56.9233C331.65 56.7694 334.463 57.8158 337.217 60.0625C338.881 61.6628 339.758 62.9708 339.849 63.9864C339.94 65.002 339.985 65.6329 339.985 65.8792C340.137 68.5567 339.123 72.1575 336.945 76.6816C334.736 81.2057 332.33 85.4682 329.728 89.4691C327.096 93.47 324.373 97.4401 321.559 101.379C319.018 104.919 316.491 108.581 313.98 112.367C313.889 112.459 313.814 112.567 313.753 112.69C313.118 113.613 312.664 114.398 312.391 115.044C312.119 115.66 311.907 116.568 311.756 117.768C311.363 121.769 309.82 123.846 307.127 124Z" fill="white"></path> </svg> 